<mxfile host="app.diagrams.net" agent="Mozilla/5.0 (Windows NT 10.0; Win64; x64) AppleWebKit/537.36 (KHTML, like Gecko) Chrome/141.0.0.0 Safari/537.36" version="28.2.7">
  <diagram name="Страница — 1" id="bEXq31MA50mlBmq4X1hF">
    <mxGraphModel dx="947" dy="609" grid="1" gridSize="10" guides="1" tooltips="1" connect="1" arrows="1" fold="1" page="1" pageScale="1" pageWidth="827" pageHeight="1169" math="0" shadow="0">
      <root>
        <mxCell id="0" />
        <mxCell id="1" parent="0" />
        <mxCell id="_rOi5QwThFD7gU0Cutfc-1" value="Редактор" style="shape=umlActor;verticalLabelPosition=bottom;verticalAlign=top;html=1;outlineConnect=0;" vertex="1" parent="1">
          <mxGeometry x="150" y="190" width="30" height="60" as="geometry" />
        </mxCell>
        <mxCell id="_rOi5QwThFD7gU0Cutfc-2" value="Верстальщик" style="shape=umlActor;verticalLabelPosition=bottom;verticalAlign=top;html=1;outlineConnect=0;" vertex="1" parent="1">
          <mxGeometry x="590" y="360" width="30" height="60" as="geometry" />
        </mxCell>
        <mxCell id="_rOi5QwThFD7gU0Cutfc-3" value="Руководитель проектов" style="shape=umlActor;verticalLabelPosition=bottom;verticalAlign=top;html=1;outlineConnect=0;" vertex="1" parent="1">
          <mxGeometry x="420" y="730" width="30" height="60" as="geometry" />
        </mxCell>
        <mxCell id="_rOi5QwThFD7gU0Cutfc-8" value="Зарегестрировать и запустить проект" style="ellipse;whiteSpace=wrap;html=1;" vertex="1" parent="1">
          <mxGeometry x="270" y="660" width="120" height="80" as="geometry" />
        </mxCell>
        <mxCell id="_rOi5QwThFD7gU0Cutfc-10" value="Согласовать и выпустить проект" style="ellipse;whiteSpace=wrap;html=1;" vertex="1" parent="1">
          <mxGeometry x="414" y="620" width="120" height="80" as="geometry" />
        </mxCell>
        <mxCell id="_rOi5QwThFD7gU0Cutfc-11" value="Организовать рецензирование и редактуру" style="ellipse;whiteSpace=wrap;html=1;" vertex="1" parent="1">
          <mxGeometry x="40" y="100" width="120" height="80" as="geometry" />
        </mxCell>
        <mxCell id="_rOi5QwThFD7gU0Cutfc-12" value="Выполнить верстку и запустить проект" style="ellipse;whiteSpace=wrap;html=1;" vertex="1" parent="1">
          <mxGeometry x="640" y="270" width="120" height="80" as="geometry" />
        </mxCell>
        <mxCell id="_rOi5QwThFD7gU0Cutfc-13" value="Зарегестрировать и запустить проект" style="ellipse;whiteSpace=wrap;html=1;" vertex="1" parent="1">
          <mxGeometry x="105" y="600" width="120" height="80" as="geometry" />
        </mxCell>
      </root>
    </mxGraphModel>
  </diagram>
</mxfile>
